<svg width="70" height="70" viewBox="0 0 70 70" fill="none" xmlns="http://www.w3.org/2000/svg">
<g clip-path="url(#clip0_2011_820)">
<rect width="70" height="70" rx="16" fill="#DA1F2A"/>
<path d="M56.5 43H54L49.5701 49.5667C49.2316 49.8497 49.2316 49.8497 49.006 49.5667C43.7033 44.133 39.0211 38.1334 34.339 32.1337L44.3238 19.5118C45.0572 22.9079 48.047 25.4549 51.6573 25.4549C55.7754 25.4549 59.1601 22.1154 59.1601 17.927C59.1036 13.7386 55.719 10.3991 51.6009 10.3991C47.9342 10.3991 45.7905 11.701 43.7033 14.0216C42.4622 15.663 37.0467 22.4551 33.7184 26.7001V12.2104L12 21.889V61L33.7184 51.3779V38.1334L48.3855 54.3777C48.9496 55.0003 48.9496 55.0003 49.5701 54.3777L56.5 43Z" fill="white"/>
<path d="M148.082 -24.5113L140.41 -17.8325C140.072 -17.5494 140.072 -17.5494 139.846 -17.8325C134.543 -23.2661 129.861 -29.2658 125.179 -35.2654L135.164 -47.8873C135.897 -44.4913 138.887 -41.9443 142.497 -41.9443C146.615 -41.9443 150 -45.2837 150 -49.4721C149.944 -53.6606 146.559 -57 142.441 -57C138.774 -57 136.63 -55.6982 134.543 -53.3776C133.302 -51.7362 127.887 -44.9441 124.558 -40.6991V-55.1888L102.84 -45.5101V-6.39915L124.558 -16.0212V-29.2658L139.225 -13.0214C139.79 -12.3988 139.789 -12.3988 140.41 -13.0214L148.082 -24.5113Z" fill="white"/>
</g>
<defs>
<clipPath id="clip0_2011_820">
<rect width="70" height="70" rx="16" fill="white"/>
</clipPath>
</defs>
</svg>
