<svg xmlns="http://www.w3.org/2000/svg"><style>:root svg:not(:target){display:none}</style><svg viewBox="0 0 24 24" fill="none" id="about-pic"><path d="M13.13 7.13a1.13 1.13 0 1 0-2.26 0 1.13 1.13 0 0 0 2.26 0Z" fill="#6D778B"></path><path fill-rule="evenodd" clip-rule="evenodd" d="M12 18c.41 0 .75-.34.75-.75v-6a.75.75 0 0 0-1.5 0v6c0 .41.34.75.75.75Z" fill="#6D778B"></path><path fill-rule="evenodd" clip-rule="evenodd" d="M12 4.5a7.5 7.5 0 1 0 0 15 7.5 7.5 0 0 0 0-15Zm-9 7.5a9 9 0 1 1 18 0 9 9 0 0 1-18 0Z" fill="#6D778B"></path></svg><svg viewBox="0 0 24 24" fill="none" id="arrow_down"><path fill-rule="evenodd" clip-rule="evenodd" d="M3.22 7.72a.76.76 0 0 1 1.06 0l7.19 7.08c.3.3.77.3 1.06 0l7.19-7.08a.76.76 0 0 1 1.06 0c.3.29.3.75 0 1.04l-7.19 7.09c-.88.87-2.3.87-3.18 0l-7.19-7.09a.73.73 0 0 1 0-1.04Z" fill="#6D778B"></path></svg><svg viewBox="0 0 24 24" fill="none" id="arrow_up"><path fill-rule="evenodd" clip-rule="evenodd" d="M3.22 16.28c.3.3.77.3 1.06 0l7.19-7.08a.76.76 0 0 1 1.06 0l7.19 7.08c.3.3.77.3 1.06 0 .3-.29.3-.75 0-1.04l-7.19-7.09a2.27 2.27 0 0 0-3.18 0l-7.19 7.09c-.3.29-.3.75 0 1.04Z" fill="#6D778B"></path></svg><svg viewBox="0 0 19 10" fill="none" id="qa-pic"><path fill-rule="evenodd" clip-rule="evenodd" d="M.36 9.28c.3.3.8.3 1.1 0l7.49-7.08c.3-.3.8-.3 1.1 0l7.5 7.08c.3.3.8.3 1.1 0 .3-.29.3-.75 0-1.04l-7.5-7.09a2.44 2.44 0 0 0-3.3 0l-7.5 7.09c-.3.29-.3.75 0 1.04Z" fill="#6D778B"></path></svg><svg viewBox="0 0 40 40" fill="none" id="reasons-pic01"><path fill-rule="evenodd" clip-rule="evenodd" d="M10.67 32.64h-1.9a3.76 3.76 0 0 1-3.77-3.75v-11.36a3.76 3.76 0 0 1 3.76-3.75h3.31c.76-.67 1.91-2.06 2.34-4.79l.23-1.7c.1-.49.3-1.32 1.05-1.83a3.07 3.07 0 0 1 2.42-.36c.76.18 1.5.6 2.03 1.26a5.91 5.91 0 0 1 1.11 3.38c.07 1.16-.06 2.37-.25 3.37 0 .03.03.15.06.16h9.46c4.33 0 5.94 5.43 2.96 7.9a4.5 4.5 0 0 1-1.54 4.24 4.5 4.5 0 0 1-1.54 4.26 4.59 4.59 0 0 1-4.5 5.33h-7.17c-1.15 0-2.23 0-3.32-.25a9.96 9.96 0 0 1-3.47-1.66l-1.27-.45Zm-3.16-15.11c0-.7.56-1.25 1.25-1.25h2.5v13.86h-2.5c-.69 0-1.25-.56-1.25-1.25v-11.36Zm19.78 3.1c0-.69.56-1.25 1.25-1.25h3.13c1.48-.97.86-3.61-1.15-3.61h-9.46c-1.7 0-2.8-1.61-2.53-3.12a12 12 0 0 0 .22-2.77 3.5 3.5 0 0 0-.57-1.96 1.23 1.23 0 0 0-.65-.4.82.82 0 0 0-.37 0l-.27 1.86c-.53 3.36-2 5.23-3.11 6.23v15.7a6.8 6.8 0 0 0 2.2 1c.78.18 1.57.2 2.81.19h7.11a2.07 2.07 0 0 0 2.05-2.1h-2.7a1.25 1.25 0 1 1 0-2.5h3.34a2 2 0 0 0 .91-1.76h-2.34a1.25 1.25 0 1 1 0-2.5h2.97a2 2 0 0 0 .91-1.76h-2.5c-.69 0-1.25-.56-1.25-1.25Z" fill="#6D778B"></path></svg><svg viewBox="0 0 40 40" fill="none" id="reasons-pic02"><path fill-rule="evenodd" clip-rule="evenodd" d="M21.16 28.83a2.5 2.5 0 0 0-2.3 0l-7.1 3.67 1.37-7.84a2.5 2.5 0 0 0-.61-2.11l-5.02-5.5 7.1-1.12a2.5 2.5 0 0 0 1.86-1.35l3.54-7.08 3.54 7.08a2.5 2.5 0 0 0 1.85 1.35l7.11 1.12-5.02 5.5a2.5 2.5 0 0 0-.61 2.11l1.36 7.84-7.07-3.67Zm9-5.5a2.5 2.5 0 0 0-.62 2.11l1.15 6.63a2.5 2.5 0 0 1-3.61 2.65l-5.92-3.08a2.5 2.5 0 0 0-2.3 0l-5.94 3.08a2.5 2.5 0 0 1-3.61-2.65l1.15-6.63a2.5 2.5 0 0 0-.62-2.11l-4.19-4.6a2.5 2.5 0 0 1 1.46-4.15l5.84-.92a2.5 2.5 0 0 0 1.85-1.35l2.96-5.93a2.5 2.5 0 0 1 4.48 0l2.96 5.93a2.5 2.5 0 0 0 1.85 1.35l5.84.92a2.5 2.5 0 0 1 1.46 4.15l-4.2 4.6Z" fill="#6D778B"></path></svg><svg viewBox="0 0 40 40" fill="none" id="reasons-pic03"><path fill-rule="evenodd" clip-rule="evenodd" d="M14.71 23.8a1.25 1.25 0 0 1 1.74.36c.15.23.39.55.7.86a3.99 3.99 0 0 0 2.85 1.23c1.27 0 2.2-.6 2.84-1.23.32-.31.56-.63.71-.86a1.25 1.25 0 0 1 2.1 1.37c-.24.35-.58.81-1.05 1.27a6.48 6.48 0 0 1-4.6 1.95 6.48 6.48 0 0 1-4.6-1.95 7.94 7.94 0 0 1-1.04-1.27 1.25 1.25 0 0 1 .35-1.73Z" fill="#6D778B"></path><path d="M15.9 15c1.14 0 2.05 1 2.05 2.25 0 1.62-1.36 3-2.04 3.75-.28.31-.61.62-.98.94-.42.35-1.03.35-1.45 0-.37-.32-.7-.63-.98-.94-.68-.75-2.05-2.13-2.05-3.75 0-1.24.92-2.25 2.05-2.25a2 2 0 0 1 1.7 1 2 2 0 0 1 1.7-1Zm11.6 0c1.13 0 2.05 1 2.05 2.25 0 1.62-1.37 3-2.05 3.75-.28.31-.61.62-.98.94-.42.35-1.03.35-1.45 0-.37-.32-.7-.63-.98-.94-.68-.75-2.04-2.13-2.04-3.75 0-1.24.91-2.25 2.04-2.25a2 2 0 0 1 1.7 1 2 2 0 0 1 1.71-1Z" fill="#6D778B"></path><path fill-rule="evenodd" clip-rule="evenodd" d="M20 32.5a12.5 12.5 0 1 0 0-25 12.5 12.5 0 0 0 0 25Zm0 2.5a15 15 0 1 0 0-30 15 15 0 0 0 0 30Z" fill="#6D778B"></path></svg></svg>