<svg viewBox="0 0 40 40" fill="none" xmlns="http://www.w3.org/2000/svg"><path fill-rule="evenodd" clip-rule="evenodd" d="M10.67 32.64h-1.9a3.76 3.76 0 0 1-3.77-3.75v-11.36a3.76 3.76 0 0 1 3.76-3.75h3.31c.76-.67 1.91-2.06 2.34-4.79l.23-1.7c.1-.49.3-1.32 1.05-1.83a3.07 3.07 0 0 1 2.42-.36c.76.18 1.5.6 2.03 1.26a5.91 5.91 0 0 1 1.11 3.38c.07 1.16-.06 2.37-.25 3.37 0 .03.03.15.06.16h9.46c4.33 0 5.94 5.43 2.96 7.9a4.5 4.5 0 0 1-1.54 4.24 4.5 4.5 0 0 1-1.54 4.26 4.59 4.59 0 0 1-4.5 5.33h-7.17c-1.15 0-2.23 0-3.32-.25a9.96 9.96 0 0 1-3.47-1.66l-1.27-.45Zm-3.16-15.11c0-.7.56-1.25 1.25-1.25h2.5v13.86h-2.5c-.69 0-1.25-.56-1.25-1.25v-11.36Zm19.78 3.1c0-.69.56-1.25 1.25-1.25h3.13c1.48-.97.86-3.61-1.15-3.61h-9.46c-1.7 0-2.8-1.61-2.53-3.12a12 12 0 0 0 .22-2.77 3.5 3.5 0 0 0-.57-1.96 1.23 1.23 0 0 0-.65-.4.82.82 0 0 0-.37 0l-.27 1.86c-.53 3.36-2 5.23-3.11 6.23v15.7a6.8 6.8 0 0 0 2.2 1c.78.18 1.57.2 2.81.19h7.11a2.07 2.07 0 0 0 2.05-2.1h-2.7a1.25 1.25 0 1 1 0-2.5h3.34a2 2 0 0 0 .91-1.76h-2.34a1.25 1.25 0 1 1 0-2.5h2.97a2 2 0 0 0 .91-1.76h-2.5c-.69 0-1.25-.56-1.25-1.25Z" fill="#6D778B"/></svg>