<svg viewBox="0 0 40 40" fill="none" xmlns="http://www.w3.org/2000/svg"><path fill-rule="evenodd" clip-rule="evenodd" d="M14.71 23.8a1.25 1.25 0 0 1 1.74.36c.15.23.39.55.7.86a3.99 3.99 0 0 0 2.85 1.23c1.27 0 2.2-.6 2.84-1.23.32-.31.56-.63.71-.86a1.25 1.25 0 0 1 2.1 1.37c-.24.35-.58.81-1.05 1.27a6.48 6.48 0 0 1-4.6 1.95 6.48 6.48 0 0 1-4.6-1.95 7.94 7.94 0 0 1-1.04-1.27 1.25 1.25 0 0 1 .35-1.73Z" fill="#6D778B"/><path d="M15.9 15c1.14 0 2.05 1 2.05 2.25 0 1.62-1.36 3-2.04 3.75-.28.31-.61.62-.98.94-.42.35-1.03.35-1.45 0-.37-.32-.7-.63-.98-.94-.68-.75-2.05-2.13-2.05-3.75 0-1.24.92-2.25 2.05-2.25a2 2 0 0 1 1.7 1 2 2 0 0 1 1.7-1Zm11.6 0c1.13 0 2.05 1 2.05 2.25 0 1.62-1.37 3-2.05 3.75-.28.31-.61.62-.98.94-.42.35-1.03.35-1.45 0-.37-.32-.7-.63-.98-.94-.68-.75-2.04-2.13-2.04-3.75 0-1.24.91-2.25 2.04-2.25a2 2 0 0 1 1.7 1 2 2 0 0 1 1.71-1Z" fill="#6D778B"/><path fill-rule="evenodd" clip-rule="evenodd" d="M20 32.5a12.5 12.5 0 1 0 0-25 12.5 12.5 0 0 0 0 25Zm0 2.5a15 15 0 1 0 0-30 15 15 0 0 0 0 30Z" fill="#6D778B"/></svg>