<svg viewBox="0 0 40 40" fill="none" xmlns="http://www.w3.org/2000/svg"><path fill-rule="evenodd" clip-rule="evenodd" d="M21.16 28.83a2.5 2.5 0 0 0-2.3 0l-7.1 3.67 1.37-7.84a2.5 2.5 0 0 0-.61-2.11l-5.02-5.5 7.1-1.12a2.5 2.5 0 0 0 1.86-1.35l3.54-7.08 3.54 7.08a2.5 2.5 0 0 0 1.85 1.35l7.11 1.12-5.02 5.5a2.5 2.5 0 0 0-.61 2.11l1.36 7.84-7.07-3.67Zm9-5.5a2.5 2.5 0 0 0-.62 2.11l1.15 6.63a2.5 2.5 0 0 1-3.61 2.65l-5.92-3.08a2.5 2.5 0 0 0-2.3 0l-5.94 3.08a2.5 2.5 0 0 1-3.61-2.65l1.15-6.63a2.5 2.5 0 0 0-.62-2.11l-4.19-4.6a2.5 2.5 0 0 1 1.46-4.15l5.84-.92a2.5 2.5 0 0 0 1.85-1.35l2.96-5.93a2.5 2.5 0 0 1 4.48 0l2.96 5.93a2.5 2.5 0 0 0 1.85 1.35l5.84.92a2.5 2.5 0 0 1 1.46 4.15l-4.2 4.6Z" fill="#6D778B"/></svg>